<svg width="837" height="607" viewBox="0 0 837 607" fill="none" xmlns="http://www.w3.org/2000/svg">
<path d="M-33.4439 549.088C-40.1416 547.174 -46.833 545.254 -53.543 543.377C-62.8715 540.726 -74.0259 535.944 -74.6697 526.263C-75.3382 516.136 -63.6824 509.856 -53.6606 508.326C-28.6157 504.51 -3.07547 513.374 22.0995 510.593C39.9826 508.617 57.1167 500.819 75.1112 501.091C95.5074 501.407 114.115 511.968 132.177 521.451C150.24 530.933 170.215 539.84 190.339 536.514C210.463 533.188 228.718 512.178 221.63 493.046C215.65 476.904 196.337 470.717 179.339 468.06C160.28 465.087 140.361 463.699 123.449 454.421C106.538 445.136 93.6318 424.814 100.15 406.647C107.312 386.697 132.351 380.385 153.533 380.212C190.661 379.908 227.82 389.484 260.182 407.688C268.402 412.315 276.573 417.58 285.864 419.209C312.946 423.959 334.233 397.648 358.808 385.322C388.353 370.494 423.989 376.335 455.348 386.784C486.707 397.233 517.236 412.067 550.192 414.6C588.02 417.511 626.837 402.919 653.387 375.808C657.354 371.751 661.198 367.18 662.356 361.624C666.045 343.978 643.031 333.758 625.129 331.726C588.112 327.527 550.533 328.307 513.727 334.031C498.765 336.359 482.881 339.394 468.948 333.479C452.439 326.474 443.364 309.001 435.651 292.798C429.653 280.187 423.543 266.833 424.583 252.903C426.942 221.469 461.971 204.851 491.77 194.625C533.987 180.144 576.209 165.663 618.431 151.175C626.658 148.351 635.064 145.44 641.898 140.057C648.602 134.78 653.356 127.484 658.568 120.72C673.498 101.346 692.83 85.6813 707.482 66.0901C718.797 50.9586 727.209 33.6158 740.14 19.8406C753.071 6.06549 772.601 -3.91907 790.695 1.50061C811.4 7.70062 821.602 30.4259 829.24 50.6613C836.482 69.8375 842.703 94.2599 828.002 108.531C817.702 118.527 801.731 118.515 787.562 120.77C714.526 132.371 669.908 214.328 597.843 230.94C572.402 236.799 545.382 233.907 520.337 241.29C497.595 247.998 492.426 263.241 499.223 284.158C500.641 288.524 502.584 292.928 506.1 295.876C515.07 303.402 531.127 298.013 541.953 298.534C557.292 299.264 572.6 300.379 587.809 302.584C617.212 306.846 646.212 314.892 672.415 329.156C691.821 339.636 711.357 357.338 709.561 379.326C707.537 404.17 680.561 417.957 657.274 426.815C621.774 440.311 584.652 453.609 546.819 450.246C515.905 447.502 487.177 433.832 457.44 424.95C427.703 416.062 393.701 412.445 367.133 428.493C358.071 433.962 350.327 441.488 340.98 446.449C317.675 458.812 288.804 453.12 264.669 442.473C240.534 431.825 218.306 416.539 192.914 409.391C181.097 406.065 167.944 404.709 156.925 410.116C145.907 415.523 138.547 429.614 143.982 440.633C147.201 447.155 153.929 451.187 160.67 453.913C179.637 461.581 200.677 461.612 221.122 462.25C241.568 462.894 262.837 464.492 280.553 474.724C298.269 484.963 311.2 506.325 305.35 525.941C303.302 532.804 299.173 538.899 294.295 544.139C268.216 572.116 224.118 574.235 187.034 564.938C149.949 555.635 115.446 537.115 77.8472 530.178C66.8103 528.14 52.3813 529.825 43.1643 537.09C28.2586 548.834 40.843 560.59 41.9201 574.749C42.8053 586.344 34.2382 592.37 24.1484 595.486C3.33125 601.915 -18.9654 598.515 -39.9187 604.151C-49.7733 606.802 -63.379 611.2 -68.8325 620.627C-77.1024 634.922 -60.9587 640.416 -51.327 646.102C-45.2917 649.67 -41.6767 652.953 -49.86 656.403C-61.1011 661.147 -69.4082 646.616 -77.8019 641.494C-86.4989 636.204 -97.4553 631.045 -97.9815 619.4C-98.4643 608.716 -89.4206 598.893 -81.1074 593.405C-67.7987 584.634 -51.5375 581.519 -36.378 577.499C-26.0592 574.761 5.51633 566.994 -15.6103 554.247" fill="#FAA41A"/>
</svg>
