<svg width="943" height="666" viewBox="0 0 943 666" fill="none" xmlns="http://www.w3.org/2000/svg">
<g filter="url(#filter0_d_1_2)">
<path d="M68.5561 549.088C61.8584 547.174 55.167 545.254 48.457 543.377C39.1285 540.726 27.9741 535.944 27.3303 526.263C26.6618 516.136 38.3176 509.856 48.3394 508.326C73.3843 504.51 98.9245 513.374 124.1 510.593C141.983 508.617 159.117 500.819 177.111 501.091C197.507 501.407 216.115 511.968 234.177 521.451C252.24 530.933 272.215 539.84 292.339 536.514C312.463 533.188 330.718 512.178 323.63 493.046C317.65 476.904 298.337 470.717 281.339 468.06C262.28 465.087 242.361 463.699 225.449 454.421C208.538 445.136 195.632 424.814 202.15 406.647C209.312 386.697 234.351 380.385 255.533 380.212C292.661 379.908 329.82 389.484 362.182 407.688C370.402 412.315 378.573 417.58 387.864 419.209C414.946 423.959 436.233 397.648 460.808 385.322C490.353 370.494 525.989 376.335 557.348 386.784C588.707 397.233 619.236 412.067 652.192 414.6C690.02 417.511 728.837 402.919 755.387 375.808C759.354 371.751 763.199 367.18 764.356 361.624C768.045 343.978 745.031 333.758 727.129 331.726C690.112 327.527 652.533 328.307 615.726 334.031C600.765 336.359 584.881 339.394 570.948 333.479C554.439 326.474 545.364 309.001 537.651 292.798C531.653 280.187 525.543 266.833 526.583 252.903C528.942 221.469 563.971 204.851 593.77 194.625C635.987 180.144 678.209 165.663 720.431 151.175C728.658 148.351 737.064 145.44 743.898 140.057C750.602 134.78 755.356 127.484 760.568 120.72C775.498 101.346 794.83 85.6813 809.482 66.0902C820.797 50.9585 829.209 33.6158 842.14 19.8406C855.071 6.06546 874.601 -3.91904 892.695 1.50059C913.4 7.70065 923.602 30.4259 931.24 50.6613C938.482 69.8375 944.703 94.2599 930.002 108.531C919.702 118.527 903.731 118.515 889.562 120.77C816.526 132.371 771.908 214.328 699.843 230.94C674.402 236.799 647.382 233.907 622.337 241.29C599.595 247.998 594.426 263.241 601.223 284.158C602.641 288.524 604.584 292.928 608.1 295.876C617.07 303.402 633.127 298.013 643.953 298.534C659.292 299.264 674.6 300.379 689.809 302.584C719.212 306.846 748.212 314.892 774.415 329.156C793.821 339.636 813.357 357.338 811.561 379.326C809.537 404.17 782.561 417.957 759.274 426.815C723.774 440.311 686.652 453.609 648.819 450.246C617.905 447.502 589.177 433.832 559.44 424.95C529.703 416.062 495.701 412.445 469.133 428.493C460.071 433.962 452.327 441.488 442.98 446.449C419.675 458.812 390.804 453.12 366.669 442.473C342.534 431.825 320.306 416.539 294.914 409.391C283.097 406.065 269.944 404.709 258.925 410.116C247.907 415.523 240.547 429.614 245.982 440.633C249.201 447.155 255.929 451.187 262.67 453.913C281.637 461.581 302.677 461.612 323.122 462.25C343.568 462.894 364.837 464.492 382.553 474.724C400.269 484.963 413.2 506.325 407.35 525.941C405.302 532.804 401.173 538.899 396.295 544.139C370.216 572.116 326.118 574.235 289.034 564.938C251.949 555.635 217.446 537.115 179.847 530.178C168.81 528.14 154.381 529.825 145.164 537.09C130.259 548.834 142.843 560.59 143.92 574.749C144.805 586.344 136.238 592.37 126.148 595.486C105.331 601.915 83.0346 598.515 62.0813 604.151C52.2267 606.802 38.621 611.2 33.1675 620.627C24.8976 634.922 41.0413 640.416 50.673 646.102C56.7083 649.67 60.3233 652.953 52.1401 656.403C40.8989 661.147 32.5918 646.616 24.1981 641.494C15.5011 636.204 4.54468 631.045 4.01852 619.4C3.5357 608.716 12.5794 598.893 20.8926 593.405C34.2013 584.634 50.4625 581.519 65.622 577.499C75.9408 574.761 107.516 566.994 86.3897 554.247" fill="#FAA41A"/>
</g>
<defs>
<filter id="filter0_d_1_2" x="0" y="0" width="942.953" height="665.341" filterUnits="userSpaceOnUse" color-interpolation-filters="sRGB">
<feFlood flood-opacity="0" result="BackgroundImageFix"/>
<feColorMatrix in="SourceAlpha" type="matrix" values="0 0 0 0 0 0 0 0 0 0 0 0 0 0 0 0 0 0 127 0" result="hardAlpha"/>
<feOffset dy="4"/>
<feGaussianBlur stdDeviation="2"/>
<feComposite in2="hardAlpha" operator="out"/>
<feColorMatrix type="matrix" values="0 0 0 0 0 0 0 0 0 0 0 0 0 0 0 0 0 0 0.25 0"/>
<feBlend mode="normal" in2="BackgroundImageFix" result="effect1_dropShadow_1_2"/>
<feBlend mode="normal" in="SourceGraphic" in2="effect1_dropShadow_1_2" result="shape"/>
</filter>
</defs>
</svg>
