<svg width="579" height="328" viewBox="0 0 579 328" fill="none" xmlns="http://www.w3.org/2000/svg">
<g clip-path="url(#clip0_702_1711)">
<path d="M100.595 230.29C92.113 227.862 83.6394 225.427 75.1422 223.047C63.3292 219.685 49.2038 213.621 48.3886 201.343C47.542 188.5 62.3023 180.535 74.9932 178.595C106.709 173.756 139.051 184.997 170.931 181.47C193.578 178.964 215.275 169.074 238.062 169.42C263.891 169.821 287.454 183.214 310.328 195.24C333.201 207.266 358.497 218.562 383.98 214.344C409.464 210.125 432.58 183.481 423.605 159.216C416.033 138.746 391.576 130.898 370.051 127.528C345.915 123.758 320.69 121.998 299.275 110.231C277.86 98.4564 261.516 72.6837 269.77 49.6445C278.839 24.343 310.547 16.3386 337.371 16.1186C384.388 15.7337 431.444 27.8778 472.425 50.9641C482.835 56.8319 493.182 63.5088 504.948 65.5747C539.242 71.5996 566.199 38.2309 597.319 22.5992C634.734 3.79388 679.861 11.2013 719.572 24.453C759.283 37.7046 797.944 56.5177 839.677 59.7305C887.58 63.4224 936.736 44.9156 970.357 10.5336C975.381 5.38849 980.249 -0.4086 981.715 -7.45468C986.387 -29.834 957.242 -42.795 934.573 -45.3716C887.697 -50.6973 840.108 -49.7076 793.499 -42.4494C774.553 -39.4958 754.439 -35.6469 736.794 -43.1485C715.888 -52.0327 704.396 -74.1921 694.629 -94.7412C687.034 -110.734 679.297 -127.67 680.614 -145.336C683.6 -185.201 727.96 -206.277 765.695 -219.245C819.155 -237.611 872.623 -255.976 926.091 -274.349C936.509 -277.931 947.154 -281.623 955.808 -288.449C964.297 -295.142 970.317 -304.395 976.918 -312.973C995.825 -337.544 1020.31 -357.41 1038.86 -382.256C1053.19 -401.446 1063.84 -423.44 1080.22 -440.91C1096.59 -458.38 1121.32 -471.042 1144.24 -464.169C1170.46 -456.306 1183.37 -427.486 1193.05 -401.823C1202.22 -377.503 1210.1 -346.53 1191.48 -328.432C1178.44 -315.754 1158.21 -315.77 1140.27 -312.91C1047.78 -298.198 991.278 -194.258 900.02 -173.191C867.803 -165.76 833.586 -169.428 801.871 -160.065C773.071 -151.558 766.526 -132.226 775.133 -105.699C776.928 -100.161 779.389 -94.5763 783.842 -90.8372C795.2 -81.2932 815.534 -88.1271 829.244 -87.4673C848.668 -86.5404 868.053 -85.1265 887.313 -82.33C924.547 -76.9257 961.272 -66.7218 994.453 -48.6314C1019.03 -35.3405 1043.77 -12.8905 1041.49 14.9954C1038.93 46.5024 1004.77 63.988 975.279 75.2209C930.324 92.3372 883.315 109.202 835.405 104.937C796.258 101.457 759.879 84.1208 722.222 72.8564C684.564 61.5843 641.506 56.9969 607.862 77.3496C596.386 84.2857 586.58 93.8297 574.744 100.122C545.231 115.801 508.671 108.582 478.108 95.0787C447.545 81.5757 419.396 62.1891 387.241 53.1243C372.277 48.9061 355.62 47.1858 341.667 54.0433C327.714 60.9009 318.394 78.7714 325.276 92.7457C329.352 101.017 337.873 106.131 346.409 109.587C370.427 119.312 397.071 119.351 422.962 120.16C448.854 120.977 475.788 123.004 498.222 135.981C520.656 148.965 537.032 176.058 529.624 200.935C527.029 209.638 521.801 217.368 515.624 224.013C482.599 259.495 426.756 262.181 379.794 250.391C332.833 238.592 289.14 215.106 241.527 206.308C227.551 203.723 209.279 205.86 197.607 215.074C178.731 229.967 194.667 244.877 196.031 262.833C197.152 277.538 186.303 285.181 173.526 289.133C147.164 297.286 118.929 292.974 92.3952 300.122C79.916 303.484 62.6865 309.061 55.7805 321.017C45.308 339.146 65.7514 346.114 77.9485 353.325C85.5912 357.849 90.169 362.013 79.8062 366.388C65.5711 372.405 55.0515 353.977 44.4222 347.481C33.4088 340.772 19.5342 334.229 18.8679 319.461C18.2565 305.911 29.7089 293.453 40.2363 286.493C57.0896 275.37 77.6819 271.419 96.879 266.321C109.946 262.849 149.932 252.999 123.178 236.833" fill="#FAA41A"/>
<path d="M465.197 278.183C485.546 258.796 517.677 261.066 543.922 251.074C559.544 245.12 573.356 234.484 583.099 220.871C590.609 210.385 595.979 197.966 606.13 190.016C620.114 179.074 639.515 179.278 657.23 180.213C674.342 181.124 691.705 182.295 707.853 188.052C724.001 193.81 739.035 204.8 745.918 220.526C755.269 241.907 747.995 266.573 740.219 288.575C733.972 306.241 727.356 323.986 717.048 339.633C711.537 347.999 704.804 355.854 696.04 360.701C686.406 366.027 675.111 367.307 664.136 368.132C613.929 371.91 558.886 370.441 510.003 357.048C480.655 349.005 433.913 307.977 465.189 278.183" fill="#007C89"/>
<path d="M121.383 353.6C141.74 334.214 173.863 336.492 200.115 326.492C215.737 320.538 229.549 309.902 239.293 296.289C246.802 285.802 252.172 273.383 262.323 265.434C276.307 254.492 295.708 254.696 313.424 255.631C330.536 256.542 347.898 257.72 364.046 263.47C380.194 269.228 395.229 280.217 402.111 295.943C411.463 317.325 404.188 341.99 396.412 363.992C390.165 381.659 383.549 399.403 373.241 415.051C367.73 423.417 360.997 431.272 352.233 436.118C342.599 441.444 331.304 442.725 320.33 443.549C270.123 447.328 215.079 445.859 166.197 432.466C136.848 424.422 90.1061 383.395 121.383 353.6Z" fill="#6CA439"/>
</g>
<defs>
<clipPath id="clip0_702_1711">
<rect width="579" height="328" fill="white" transform="matrix(1 0 0 -1 0 328)"/>
</clipPath>
</defs>
</svg>
