<svg width="1243" height="364" viewBox="0 0 1243 364" fill="none" xmlns="http://www.w3.org/2000/svg">
<g clip-path="url(#clip0_722_3300)">
<path d="M1239.06 337.25C1240.16 336.3 1243.25 333.6 1242.87 330.58C1242 323.75 1224 320.39 1216.93 319.69C1196.84 317.7 1176.44 319.94 1156.36 320.96C1115.66 323.04 1075.12 310.69 1034.75 316.38C996.03 321.84 959.83 339.97 920.15 339.35C905.36 339.12 884.62 336.45 874.17 324.42C864.52 313.31 874.22 304.49 885.16 299.95C918.5 286.09 957.68 293.47 992.25 283.74C1003.49 280.58 1025.39 272.86 1026.18 258.32C1026.89 245.34 1010.09 239.77 1000.16 237.15C964.96 227.87 924.53 232.08 888.99 236.97C869.87 239.6 850.88 243.4 832.29 248.58C814.46 253.55 797.37 260.24 778.52 259.29C743.59 257.55 713.01 236.38 678.45 231.73C600.35 221.21 525.68 256.01 448.08 256.13C411.99 256.19 374.53 250.22 341.52 235.16C332.42 231.01 310.68 222.51 322.36 210.69C331.17 201.77 351.02 200.7 362.6 199.69C403.08 196.16 444.43 197 484.94 199.54C520.84 201.79 561.83 211.11 591.55 185.09C601.46 176.41 618.48 160.93 617.24 146.63C616.24 135.17 604.4 128.21 595.15 123.71C563.85 108.49 526.46 104.95 492.67 98.6597C455.68 91.7697 418.08 87.0697 381.48 78.2697C337.44 67.6897 337.8 56.4997 288.66 36.2497C208.58 3.25966 148.54 1.75966 85.5701 0.17966C42.7101 -0.90034 13.7201 2.51966 3.84011 20.6097C-0.179894 27.9697 -1.74989 39.0697 2.61011 47.5497C16.7901 75.1497 80.2601 48.8397 161.9 55.8797C253.5 63.7797 309.47 119.57 399.85 130.88C431.76 134.87 465.64 132.9 497.06 137.93C525.59 142.49 532.07 152.87 523.54 167.11C521.76 170.08 519.32 173.08 514.92 175.09C503.67 180.21 483.53 176.54 469.95 176.9C450.71 177.4 431.51 178.16 412.44 179.66C375.56 182.56 339.19 188.04 306.33 197.75C282 204.88 257.49 216.94 259.74 231.91C262.28 248.82 296.11 258.21 325.32 264.24C369.84 273.43 416.41 282.48 463.85 280.19C502.63 278.32 538.65 269.02 575.95 262.97C613.25 256.92 655.89 254.46 689.22 265.38C700.58 269.1 710.3 274.23 722.02 277.6C751.25 286.02 787.46 282.14 817.73 274.89C848 267.64 875.88 257.24 907.73 252.37C922.55 250.11 939.05 249.18 952.87 252.86C966.69 256.54 975.92 266.13 969.11 273.63C965.07 278.07 956.64 280.81 948.18 282.67C924.39 287.89 898.01 287.91 872.36 288.35C846.72 288.79 820.04 289.87 797.82 296.84C775.6 303.81 759.38 318.35 766.72 331.7C769.29 336.37 774.46 340.52 780.59 344.09C837.68 377.34 915.12 358.25 915.12 358.25C1039 339.15 1021.52 335.41 1052.07 334.59C1121.1 332.73 1222.74 351.49 1239.07 337.26L1239.06 337.25Z" fill="#F1F1F1"/>
</g>
<defs>
<clipPath id="clip0_722_3300">
<rect width="1242.9" height="363.69" fill="white"/>
</clipPath>
</defs>
</svg>
