<svg width="1207" height="737" viewBox="0 0 1207 737" fill="none" xmlns="http://www.w3.org/2000/svg">
<path d="M36.9487 99.4936C19.3387 96.8036 -1.13126 85.7737 0.0487435 68.0037C2.89156 24.4907 136.772 9.67185 166.999 1.08366C184.53 -2.73377 187.897 4.44639 187.389 8.51366C179.159 26.5937 191.629 61.8737 209.469 70.6137C227.299 79.3537 248.379 77.7737 267.919 74.1737C333.969 62.0037 394.569 29.4837 459.709 13.1537C524.849 -3.16634 602.309 0.543663 648.109 49.6637C656.689 58.8637 663.929 69.5536 667.529 81.6036C677.809 116.034 655.099 153.534 623.979 171.504C592.859 189.474 555.499 192.284 519.589 193.404C483.679 194.524 446.729 194.584 413.409 208.044C401.569 212.824 389.759 219.904 384.099 231.354C374.549 250.684 387.469 275.424 406.829 284.914C426.189 294.414 449.289 292.014 470.049 286.184C514.649 273.634 553.699 246.804 596.089 228.114C638.479 209.424 689.199 199.434 730.129 221.134C746.549 229.844 760.159 243.044 776.069 252.654C822.739 280.824 882.449 274.474 934.689 258.874C986.919 243.274 1037.38 219.284 1091.68 214.464C1158.13 208.564 1223.34 231.904 1285.69 255.594C1326.59 271.134 1373.97 295.344 1377.53 338.954C1380.68 377.544 1346.36 408.634 1312.28 427.024C1266.26 452.054 1215.33 466.184 1163.68 473.664C1136.97 477.534 1110.08 479.484 1083.14 480.774C1064.13 481.684 1035.92 472.224 1020.17 485.434C1013.99 490.614 1010.58 498.334 1008.09 506.004C996.149 542.724 1005.23 569.484 1045.18 581.254C1089.17 594.214 1136.63 589.134 1181.32 599.424C1307.9 628.574 1386.27 772.444 1514.56 792.814C1539.44 796.764 1567.5 796.744 1585.59 814.294C1611.42 839.354 1600.48 882.224 1587.77 915.884C1574.35 951.394 1556.44 991.294 1520.06 1002.17C1488.28 1011.69 1453.97 994.174 1431.26 969.984C1408.55 945.804 1393.78 915.364 1373.9 888.804C1348.17 854.414 1314.21 826.914 1287.99 792.904C1278.83 781.034 1270.49 768.234 1258.71 758.964C1246.7 749.514 1231.94 744.404 1217.49 739.444C1143.33 714.014 1069.17 688.594 995.009 663.174C942.669 645.234 881.129 616.044 876.989 560.874C875.159 536.424 885.889 512.984 896.429 490.844C909.969 462.404 925.909 431.734 954.909 419.434C979.389 409.054 1007.28 414.394 1033.56 418.474C1098.22 428.524 1164.22 429.884 1229.24 422.514C1260.69 418.954 1301.12 401.004 1294.63 370.034C1292.58 360.284 1285.84 352.254 1278.87 345.134C1232.23 297.534 1164.05 271.924 1097.61 277.034C1039.73 281.484 986.099 307.524 931.019 325.864C875.939 344.214 813.339 354.454 761.449 328.434C718.279 306.794 680.889 260.604 633.329 268.944C617.019 271.804 602.669 281.044 588.219 289.164C531.369 321.114 466.099 337.924 400.889 337.394C363.679 337.084 319.709 326.004 307.119 290.984C295.669 259.094 318.349 223.424 348.049 207.124C377.739 190.824 412.739 188.404 446.209 183.174C476.059 178.514 509.989 167.644 520.489 139.314C532.939 105.714 500.879 68.8437 465.529 63.0037C430.189 57.1637 395.099 72.8036 363.369 89.4537C331.639 106.104 298.949 124.644 263.129 125.194C231.529 125.674 201.429 111.984 170.019 108.514C125.799 103.634 80.9287 106.194 36.9487 99.4936Z" fill="#F1F1F1"/>
</svg>
