<svg width="769" height="593" viewBox="0 0 769 593" fill="none" xmlns="http://www.w3.org/2000/svg">
<path d="M672.719 24.7176C654.382 35.3915 632.793 63.1757 640.167 82.9463C646.386 99.6159 666.483 106.012 684.163 108.754C703.987 111.831 724.717 113.255 742.302 122.846C759.893 132.437 773.327 153.426 766.545 172.19C759.088 192.797 733.045 199.316 711.005 199.499C672.382 199.81 633.723 189.919 600.051 171.12C591.492 166.342 582.993 160.905 573.332 159.222C545.163 154.315 523.017 181.493 497.447 194.226C466.713 209.537 429.635 203.512 397.012 192.714C364.388 181.923 332.623 166.601 298.341 163.982C258.989 160.975 218.606 176.045 190.982 204.053C186.853 208.242 182.861 212.967 181.647 218.704C177.803 236.927 201.75 247.489 220.377 249.584C258.888 253.921 297.98 253.12 336.278 247.207C351.843 244.806 368.362 241.664 382.862 247.772C400.038 255.009 409.48 273.055 417.499 289.79C423.742 302.817 430.097 316.61 429.013 330.996C426.561 363.459 390.111 380.634 359.111 391.191C315.186 406.148 271.261 421.105 227.337 436.069C218.778 438.987 210.036 441.994 202.922 447.554C195.945 453.009 191.005 460.541 185.58 467.525C170.05 487.537 149.935 503.718 134.696 523.954C122.921 539.582 114.173 557.493 100.722 571.721C87.2706 585.955 66.949 596.264 48.1259 590.662C26.5781 584.26 15.9701 560.782 8.02148 539.888C0.493408 520.082 -5.98627 494.857 9.31274 480.111C20.0273 469.785 36.6471 469.796 51.3834 467.472C127.369 455.486 173.787 370.832 248.76 353.679C275.23 347.625 303.34 350.614 329.395 342.988C353.057 336.062 358.435 320.317 351.363 298.71C349.889 294.197 347.869 289.655 344.209 286.607C334.88 278.834 318.171 284.4 306.912 283.865C290.955 283.106 275.028 281.958 259.208 279.681C228.616 275.28 198.45 266.966 171.193 252.238C151.008 241.417 130.68 223.123 132.546 200.416C134.654 174.756 162.717 160.51 186.942 151.367C223.872 137.427 262.495 123.694 301.853 127.165C334.015 130.001 363.902 144.117 394.838 153.297C425.779 162.476 461.146 166.212 488.788 149.637C498.211 143.982 506.273 136.215 515.998 131.09C540.241 118.322 570.282 124.2 595.389 135.197C620.497 146.194 643.626 161.982 670.042 169.366C682.338 172.796 696.02 174.209 707.487 168.619C718.954 163.035 726.607 148.478 720.95 137.104C717.598 130.366 710.603 126.2 703.59 123.388C683.855 115.468 661.969 115.432 640.7 114.773C619.431 114.114 597.302 112.461 578.87 101.887C560.438 91.3135 546.987 69.2481 553.076 48.9891C555.208 41.8988 559.496 35.6087 564.578 30.1953C578.277 15.6003 624.477 5.56791 672.719 0.213713C693.412 -2.08279 689.989 14.6651 672.719 24.7176Z" fill="#F1F1F1"/>
</svg>
