<svg width="1148" height="507" viewBox="0 0 1148 507" fill="none" xmlns="http://www.w3.org/2000/svg">
<path d="M635.677 238.799C622.448 237.213 608.728 236.83 596.457 232.396C584.186 227.976 573.463 218.045 574.716 206.981C575.613 199.104 582.43 192.346 590.672 188.394C598.914 184.441 608.458 182.869 617.866 181.665C709.989 169.878 807.332 189.258 883.044 234.464C901.849 245.698 919.561 258.633 932.41 274.655C945.258 290.678 952.971 310.072 950.539 329.226C947.911 349.909 933.724 368.638 915.717 383.088C887.122 406.052 850.445 420.318 815.033 434.471C776.526 449.856 736.717 462.946 696.011 473.727C654.224 484.749 606.431 498.646 562.138 497.626C548.725 497.314 505.072 486.817 536.43 478.203C576.681 467.168 616.982 455.154 654.015 437.8C697.657 417.343 737.233 389.024 760.828 352.275C768.702 340.007 774.769 325.387 768.788 312.396C765.348 304.916 758.335 299.022 751.518 293.355C739.738 283.58 727.898 273.777 714.509 265.56C703.246 258.647 690.938 252.909 678.004 248.461C664.456 243.8 650.195 240.556 635.689 238.828M14.7957 396.9C23.8974 402.227 35.1854 404.38 46.277 405.16C97.104 408.701 146.125 385.935 197.112 387.069C253.27 388.301 302.783 418.009 357.958 426.764C427.418 437.786 497.161 414.878 566.094 401.788C599.307 395.484 633.134 391.404 667.146 389.633C671.334 390.256 672.059 392.622 672.378 396.15C672.968 402.709 657.602 412.399 652.124 416.408C643.661 422.585 634.19 427.756 624.303 432.218C604.036 441.356 581.975 447.433 559.989 453.001C527.758 461.175 499.495 471.701 469.34 483.771C463.69 486.024 443.128 491.336 452.5 499.411C459.133 505.135 490.553 504.752 500.036 505.489C532.5 508.01 565.283 507.274 597.649 504.044C662.319 497.584 725.773 481.348 784.178 457.449C796.019 452.604 811.631 447.802 821.089 455.466C833.974 465.907 819.246 486.491 830.35 498.264C837.081 505.39 850.949 505.347 859.94 500.204C868.919 495.062 873.857 486.307 877.038 477.637C880.231 468.967 882.123 459.886 886.987 451.782C894.541 439.16 908.445 430.121 922.166 421.848C983.531 384.844 1114.09 353.791 1134.48 329.226C1154.87 304.661 1156.74 284.402 1107.88 272.969C1059.02 261.537 1074.19 306.587 1057.07 317.34C1035.5 330.869 1009.28 338.392 982.856 343.081C1000.38 321.306 998.381 291.556 984.379 268.082C970.389 244.608 946.13 226.488 920.593 211.16C803.88 141.105 646.928 119.855 509.53 155.499C484.473 162.001 458.961 170.926 442.453 187.898C425.306 205.521 420.356 229.789 424.213 252.229C429.568 283.382 451.297 312.325 482.581 330.019C513.866 347.713 554.24 353.848 591.028 346.537C601.235 344.512 611.344 341.48 621.846 341.537C632.348 341.593 643.722 345.673 647.591 353.791C653.389 365.974 624.229 368.963 614.317 371.726C596.531 376.684 578.561 381.175 560.431 385.184C524.172 393.203 487.298 399.309 450.117 403.431C420.552 406.704 390.287 408.715 361.078 403.729C331.857 398.742 303.495 385.921 287.527 364.968C269.864 341.806 269.57 312.481 272.64 285.167C275.699 257.854 281.496 230.016 274.09 203.297C266.683 176.593 246.355 152.198 246.576 124.799C246.711 108.125 254.548 92.2298 258.711 75.9097C262.875 59.5895 262.605 40.7761 249.143 28.4085C213.731 -4.17511 151.53 -5.77596 101.71 8.78748C78.7041 15.5167 57.1352 27.0768 43.415 43.8502C21.3056 70.8946 24.7695 108.734 61.3359 125.238C79.8587 133.597 101.391 135.722 122.333 137.62C143.288 139.518 164.796 141.459 183.515 149.506C215.107 163.092 233.384 192.035 240.434 221.02C244.905 239.423 245.642 258.449 242.584 277.049C237.757 306.446 219.59 337.726 185.615 346.807C160.398 353.55 133.314 346.452 107.041 343.619C85.8037 341.324 64.1242 341.891 43.108 345.262C23.8482 348.323 1.77568 357.092 0.0929071 373.355C-0.865167 382.578 5.69396 391.574 14.8079 396.9" fill="#FAA41A"/>
</svg>
